<?xml version="1.0" encoding="utf-8" standalone="no"?>
<svg xmlns="http://www.w3.org/2000/svg"
     xmlns:xlink="http://www.w3.org/1999/xlink"  viewBox="0 0 150 150" >

<title>sunny</title>

<rect width="150" height="150" fill="#3be" stroke="none"/>

 <g style="stroke-width:7;stroke:#ff0">
<line x1="22" y1="75" x2="39" y2="75" transform="rotate(-20, 75, 75)" />
<line x1="22" y1="75" x2="39" y2="75" transform="rotate(4, 75, 75)" />
<line x1="22" y1="75" x2="39" y2="75" transform="rotate(28, 75, 75)" />
<line x1="22" y1="75" x2="39" y2="75" transform="rotate(52, 75, 75)" />
<line x1="22" y1="75" x2="39" y2="75" transform="rotate(76, 75, 75)" />
<line x1="22" y1="75" x2="39" y2="75" transform="rotate(100, 75, 75)" />
<line x1="22" y1="75" x2="39" y2="75" transform="rotate(124, 75, 75)" />
<line x1="22" y1="75" x2="39" y2="75" transform="rotate(148, 75, 75)" />
<line x1="22" y1="75" x2="39" y2="75" transform="rotate(172, 75, 75)" />
<line x1="22" y1="75" x2="39" y2="75" transform="rotate(196, 75, 75)" />
<line x1="22" y1="75" x2="39" y2="75" transform="rotate(220, 75, 75)" />
<line x1="22" y1="75" x2="39" y2="75" transform="rotate(244, 75, 75)" />
<line x1="22" y1="75" x2="39" y2="75" transform="rotate(268, 75, 75)" />
<line x1="22" y1="75" x2="39" y2="75" transform="rotate(292, 75, 75)" />
<line x1="22" y1="75" x2="39" y2="75" transform="rotate(316, 75, 75)" />

<circle cx="75" cy="75" r="25" fill="#ff0"/>
  </g>
 



</svg>